<svg viewBox="0 0 24 24" fill="none" xmlns="http://www.w3.org/2000/svg">
  <circle cx="12" cy="12" r="3" stroke="currentColor" stroke-width="2"/>
  <path d="M19.4 15A1.7 1.7 0 0 0 19.8 17L21 18.2L18.2 21L17 19.8A1.7 1.7 0 0 0 15 19.4
           A1.7 1.7 0 0 0 13 20V22H11V20A1.7 1.7 0 0 0 9 19.4
           A1.7 1.7 0 0 0 7 19.8L5.8 21L3 18.2L4.2 17
           A1.7 1.7 0 0 0 4.6 15
           A1.7 1.7 0 0 0 4 13H2V11H4
           A1.7 1.7 0 0 0 4.6 9
           A1.7 1.7 0 0 0 4.2 7L3 5.8L5.8 3L7 4.2
           A1.7 1.7 0 0 0 9 4.6
           A1.7 1.7 0 0 0 11 4V2H13V4
           A1.7 1.7 0 0 0 15 4.6
           A1.7 1.7 0 0 0 17 4.2L18.2 3L21 5.8L19.8 7
           A1.7 1.7 0 0 0 19.4 9
           A1.7 1.7 0 0 0 20 11H22V13H20
           A1.7 1.7 0 0 0 19.4 15Z"
        stroke="currentColor" stroke-width="2" stroke-linejoin="round"/>
</svg>
